<svg width="25" height="24" viewBox="0 0 25 24" fill="none" xmlns="http://www.w3.org/2000/svg">
<path d="M4.53958 17.0194L3.33602 9.83981C3.15404 8.75428 3.06306 8.21152 3.35442 7.85576C3.64579 7.5 4.1813 7.5 5.25233 7.5H20.0811C21.1521 7.5 21.6876 7.5 21.979 7.85576C22.2703 8.21152 22.1793 8.75428 21.9974 9.83981L20.7938 17.0194C20.3949 19.3991 20.1954 20.5889 19.381 21.2945C18.5667 22 17.3927 22 15.0449 22H10.2885C7.94065 22 6.76672 22 5.95234 21.2945C5.13796 20.5889 4.9385 19.3991 4.53958 17.0194Z" fill="#C53D43" stroke="#C53D43" stroke-width="1.5"/>
<path d="M18.1667 7.5C18.1667 4.46243 15.7043 2 12.6667 2C9.62912 2 7.16669 4.46243 7.16669 7.5" stroke="#C53D43" stroke-width="1.5"/>
</svg>
